<svg preserveAspectRatio="none" width="100%" height="100%" overflow="visible" style="display: block;" viewBox="0 0 58 69" fill="none" xmlns="http://www.w3.org/2000/svg">
<path id="Vector" d="M48.3251 66.2316C44.5775 69.8728 40.4858 69.2979 36.547 67.5731C32.3787 65.81 28.5546 65.7334 24.157 67.5731C18.6503 69.9495 15.744 69.2596 12.4553 66.2316C-6.20617 46.9524 -3.45284 17.5928 17.7325 16.5196C22.895 16.7879 26.4896 19.3559 29.5107 19.5859C34.0231 18.666 38.3443 16.0213 43.1626 16.3663C48.9369 16.8262 53.2964 19.1259 56.1644 23.2654C44.2333 30.4328 47.0632 46.1858 58 50.5936C55.8203 56.3429 52.9905 62.0538 48.2869 66.27L48.3251 66.2316ZM29.1283 16.2896C28.5546 7.74236 35.4762 0.689913 43.4303 0C44.5393 9.88875 34.482 17.2478 29.1283 16.2896Z" fill="var(--fill-0, black)"/>
</svg>
