<svg preserveAspectRatio="none" width="100%" height="100%" overflow="visible" style="display: block;" viewBox="0 0 121 53" fill="none" xmlns="http://www.w3.org/2000/svg">
<path id="Vector" d="M73.2151 36.9077H89.7013V43.569H65.2644V9.36089H73.2151V36.9077ZM107.196 30.5268H113.669V36.512C112.48 36.9628 110.15 37.4135 107.937 37.4135C100.778 37.4135 98.3932 33.8024 98.3932 26.4649C98.3932 19.463 100.662 15.3411 107.816 15.3411C111.804 15.3411 114.068 16.5832 115.943 18.9572L120.894 14.4345C117.869 10.1522 112.596 8.85504 107.64 8.85504C96.5076 8.85504 90.6592 14.8903 90.6592 26.4048C90.6592 37.8643 95.9379 44.0748 107.589 44.0748C112.933 44.0748 118.157 42.7225 121 40.7442V24.146H107.191L107.196 30.5268ZM26.6755 0C33.7502 0 40.5352 2.79196 45.5379 7.76167C50.5405 12.7314 53.3509 19.4718 53.3509 26.5C53.3509 33.5282 50.5405 40.2686 45.5379 45.2383C40.5352 50.208 33.7502 53 26.6755 53C19.6007 53 12.8157 50.208 7.81306 45.2383C2.81044 40.2686 0 33.5282 0 26.5C0 19.4718 2.81044 12.7314 7.81306 7.76167C12.8157 2.79196 19.6007 0 26.6755 0ZM42.6071 42.3569C44.7051 40.2815 46.3688 37.814 47.5024 35.0968C48.6359 32.3796 49.2169 29.4664 49.2117 26.525V25.313L48.1025 25.318H33.2548V27.7922H46.6758L46.6707 27.8673C46.3178 32.8994 44.0599 37.6122 40.3512 41.0576C36.6426 44.5031 31.7582 46.4257 26.6805 46.4389C24.0472 46.4454 21.4388 45.9331 19.0062 44.9315C16.5735 43.9299 14.365 42.459 12.5084 40.6039C10.6419 38.7591 9.1622 36.5649 8.15489 34.1483C7.14757 31.7317 6.63264 29.1406 6.63987 26.525C6.63987 21.211 8.72712 16.2125 12.5084 12.4511C14.3648 10.5975 16.5727 9.12793 19.0044 8.12725C21.4361 7.12658 24.0434 6.61471 26.6755 6.62124L27.946 6.63627V4.15706L26.6805 4.14203C20.7064 4.14866 14.9789 6.50883 10.7541 10.7049C6.52934 14.9009 4.15226 20.5903 4.14425 26.525C4.14425 32.5052 6.48863 38.1247 10.7438 42.3569C12.8307 44.4428 15.3134 46.0967 18.048 47.2229C20.7827 48.3491 23.7151 48.9253 26.6755 48.9181C29.6375 48.9266 32.5718 48.3511 35.3083 47.2248C38.0448 46.0986 40.5291 44.444 42.6172 42.3569M27.946 35.8609V14.7H25.41V38.3401H33.2548V35.8609H27.946ZM21.5682 18.0707C21.5702 17.4004 21.3719 16.7446 20.9984 16.1864C20.6249 15.6282 20.093 15.1927 19.4702 14.935C18.8473 14.6774 18.1614 14.6092 17.4995 14.7391C16.8376 14.869 16.2294 15.1912 15.7519 15.6648C15.2745 16.1384 14.9493 16.7422 14.8175 17.3995C14.6858 18.0569 14.7534 18.7383 15.0118 19.3575C15.2703 19.9767 15.7079 20.5057 16.2692 20.8775C16.8306 21.2494 17.4904 21.4474 18.1651 21.4464C19.0664 21.4451 19.9305 21.0892 20.5682 20.4565C21.206 19.8239 21.5656 18.966 21.5682 18.0707Z" fill="var(--fill-0, #CB2E2E)"/>
</svg>
