<svg preserveAspectRatio="none" width="100%" height="100%" overflow="visible" style="display: block;" viewBox="0 0 211 33" fill="none" xmlns="http://www.w3.org/2000/svg">
<path id="Vector" d="M174.224 1.02562L174.629 25.2628H174.427L167.569 1.03462H156.289V31.5515H163.745L163.34 6.49563H163.543L170.892 31.5515H181.68V1.03462L174.224 1.02562ZM32.239 1.02562L26.6036 31.8664H34.7623L38.8943 3.81461H39.0965L43.1319 31.8664H51.1851L45.6463 1.03462L32.239 1.02562ZM77.7887 1.02562L74.061 24.5431H73.8588L70.1311 1.03462H57.8492L57.2425 31.8664H64.8034L65.0056 4.1295H65.1023L70.1399 31.8664H77.7975L82.8351 4.1295H83.0373L83.2395 31.8664H90.8003L90.097 1.03462L77.7887 1.02562ZM13.9084 23.1036C14.1295 23.8385 14.1628 24.619 14.0051 25.3708C13.8029 26.3964 13.0996 27.431 11.0863 27.431C9.16971 27.431 8.06196 26.2974 8.06196 24.642V21.6551H0V24.0303C0 30.9398 5.33654 33 10.9896 33C16.4228 33 20.9593 31.0387 21.6627 25.9826C22.0671 23.3015 21.7682 21.5562 21.6627 20.9354C20.256 14.4397 8.76529 12.5774 7.95646 8.96974C7.85748 8.42561 7.85748 7.86746 7.95646 7.32333C8.15867 6.28871 8.87079 5.25409 10.6819 5.25409C12.493 5.25409 13.4952 6.39667 13.4952 8.04308V9.8964H21.056V7.73718C21.056 1.03462 15.1129 0 10.8841 0C5.53875 0 1.10775 1.85333 0.298917 6.81052C0.0343281 8.17497 0.0703692 9.58262 0.404417 10.931C1.60887 17.3187 12.3963 19.181 13.9084 23.0946M111.953 23.0946C112.252 23.8143 112.146 24.75 112.05 25.3708C111.848 26.3964 111.144 27.431 109.131 27.431C107.214 27.431 106.107 26.2974 106.107 24.642V21.6551H98.0447V24.0303C98.0447 30.8318 103.285 32.892 108.929 32.892C114.371 32.892 118.802 31.0387 119.505 25.8836C119.91 23.2026 119.611 21.5562 119.505 20.8274C118.301 14.4397 106.907 12.4785 106.107 8.96974C106.008 8.42561 106.008 7.86746 106.107 7.32333C106.309 6.28871 107.012 5.25409 108.832 5.25409C110.538 5.25409 111.645 6.39667 111.645 8.04308V9.8964H119.101V7.73718C119.101 1.03462 113.254 0 109.025 0C103.689 0 99.3546 1.75436 98.5458 6.81052C98.3436 8.15104 98.3436 9.38358 98.6513 10.931C99.8557 17.3187 110.432 19.0731 111.953 23.0946ZM137.343 27.2241C139.453 27.2241 140.069 25.7846 140.262 24.9569C140.368 24.642 140.368 24.1292 140.368 23.8233V1.02562H148.017V23.1936C148.017 23.8143 148.016 24.9479 147.929 25.2628C147.419 31.0297 142.988 32.883 137.44 32.883C131.901 32.883 127.47 31.0297 126.96 25.2538C126.96 24.9479 126.864 23.8143 126.864 23.1936V1.02562H134.513V23.8143C134.513 24.2282 134.513 24.633 134.618 24.9479C134.618 25.7666 135.233 27.2151 137.343 27.2151M200.221 26.9092C202.437 26.9092 203.14 25.4697 203.342 24.633C203.439 24.3272 203.439 23.8143 203.439 23.4995V19.0641H200.318V14.5297H211V22.7797C211 23.4005 211 23.8143 210.903 24.849C210.393 30.5169 205.655 32.4692 200.318 32.4692C194.982 32.4692 190.243 30.5169 189.742 24.84C189.636 23.8143 189.636 23.4005 189.636 22.7797V9.78844C189.636 9.27562 189.742 8.241 189.742 7.71919C190.445 1.95229 194.982 0.0989611 200.318 0.0989611C205.655 0.0989611 210.297 1.95228 210.895 7.72818C211 8.65485 211 9.78844 211 9.78844V10.8231H203.439V9.0687C203.439 9.0687 203.439 8.34896 203.342 7.93512C203.237 7.21538 202.639 5.66793 200.318 5.66793C198.103 5.66793 197.505 7.10742 197.294 7.93512C197.197 8.33997 197.197 8.86178 197.197 9.37459V23.4995C197.197 23.9133 197.197 24.3272 197.294 24.633C197.294 25.4607 198.103 26.9092 200.221 26.9092Z" fill="var(--fill-0, #135CC3)"/>
</svg>
