<svg preserveAspectRatio="none" width="100%" height="100%" overflow="visible" style="display: block;" viewBox="0 0 83 53" fill="none" xmlns="http://www.w3.org/2000/svg">
<path id="Vector" d="M69.0309 52.9975C68.7378 52.9956 68.4573 52.8832 68.2501 52.6847C68.0428 52.4861 67.9255 52.2175 67.9235 51.9367V1.06103C67.9255 0.780291 68.0428 0.511608 68.2501 0.313092C68.4573 0.114577 68.7378 0.0021891 69.0309 0.000237211H81.864C82.0115 -0.00239577 82.1582 0.0230436 82.2954 0.0750814C82.4326 0.127119 82.5576 0.204721 82.6633 0.303389C82.7689 0.402058 82.8531 0.51983 82.9109 0.649884C82.9687 0.779937 82.999 0.919684 83 1.06103V51.9367C83 52.533 82.4865 53.0099 81.864 52.9975H69.0309ZM47.5119 52.9975C47.5119 52.9975 46.4849 52.6994 46.4849 51.9367V20.7018C46.5164 19.7279 46.342 18.758 45.9723 17.8502C45.6026 16.9425 45.0451 16.1158 44.3334 15.4196C43.6216 14.7235 42.7703 14.1724 41.8306 13.7993C40.8908 13.4263 39.8821 13.2391 38.8649 13.2489H14.8742C13.4841 13.2489 13.8342 14.2451 13.8342 14.2451V51.9367C13.8342 52.8286 12.7942 52.9975 12.7942 52.9975H1.13599C0.988452 53.0001 0.841833 52.9747 0.704632 52.9227C0.567431 52.8706 0.442376 52.793 0.336713 52.6944C0.23105 52.5957 0.14688 52.4779 0.0890813 52.3479C0.0312825 52.2178 0.00100392 52.0781 0 51.9367V1.06103C0 0.464799 0.51353 -0.0121842 1.13599 0.000237211H45.6186C49.5193 0.0283587 53.2509 1.52949 56.0029 4.17759C58.7549 6.82568 60.305 10.4069 60.3165 14.1433L60.3424 51.9392C60.3428 52.0786 60.3143 52.2167 60.2588 52.3455C60.2033 52.4744 60.1217 52.5915 60.0188 52.69C59.9159 52.7886 59.7937 52.8667 59.6592 52.9199C59.5246 52.9731 59.3805 53.0003 59.235 53L47.5119 52.9975ZM23.6561 52.9975C23.5194 52.9978 23.384 52.9723 23.2577 52.9223C23.1314 52.8724 23.0166 52.799 22.9199 52.7065C22.8233 52.6139 22.7467 52.5039 22.6946 52.3829C22.6424 52.2619 22.6157 52.1322 22.6161 52.0013V22.1899C22.6161 21.6458 23.0881 21.1937 23.6561 21.1937H36.6915C37.2595 21.2185 37.69 21.6607 37.69 22.1899V52.0013C37.6914 52.1315 37.6659 52.2606 37.6149 52.3812C37.5639 52.5019 37.4885 52.6117 37.393 52.7043C37.2976 52.7969 37.1839 52.8705 37.0586 52.9208C36.9333 52.9711 36.7988 52.9972 36.663 52.9975H23.6561Z" fill="var(--fill-0, #FF8827)"/>
</svg>
