<svg preserveAspectRatio="none" width="100%" height="100%" overflow="visible" style="display: block;" viewBox="0 0 24 24" fill="none" xmlns="http://www.w3.org/2000/svg">
<g id="ic:round-phone">
<path id="Vector" d="M14.3792 15.6405L14.8352 15.1875L13.7762 14.1235L13.3222 14.5765L14.3792 15.6405ZM16.3642 14.9975L18.2752 16.0365L18.9902 14.7185L17.0802 13.6805L16.3642 14.9975ZM18.6422 18.1005L17.2222 19.5135L18.2792 20.5765L19.6992 19.1645L18.6422 18.1005ZM16.3562 19.9675C14.9062 20.1035 11.1562 19.9825 7.09417 15.9445L6.03617 17.0075C10.4682 21.4145 14.6872 21.6305 16.4962 21.4615L16.3562 19.9675ZM7.09417 15.9445C3.22317 12.0945 2.58117 8.85747 2.50117 7.45247L1.00317 7.53747C1.10317 9.30547 1.89817 12.8935 6.03617 17.0075L7.09417 15.9445ZM8.46917 9.76447L8.75617 9.47847L7.70017 8.41547L7.41317 8.70047L8.46917 9.76447ZM8.98417 5.84347L7.72417 4.15947L6.52317 5.05947L7.78317 6.74247L8.98417 5.84347ZM3.48317 3.79247L1.91317 5.35247L2.97117 6.41647L4.54017 4.85647L3.48317 3.79247ZM7.94117 9.23247C7.41117 8.70047 7.41117 8.70047 7.41117 8.70247H7.40917L7.40617 8.70647C7.35865 8.75439 7.3161 8.80699 7.27917 8.86347C7.22517 8.94347 7.16617 9.04847 7.11617 9.18147C6.99445 9.5248 6.96412 9.89388 7.02817 10.2525C7.16217 11.1175 7.75817 12.2605 9.28417 13.7785L10.3422 12.7145C8.91317 11.2945 8.57317 10.4305 8.51017 10.0225C8.48017 9.82847 8.51117 9.73247 8.52017 9.71047C8.52617 9.69714 8.52617 9.69514 8.52017 9.70447C8.51126 9.71827 8.50122 9.73131 8.49017 9.74347L8.48017 9.75347L8.47017 9.76247L7.94117 9.23247ZM9.28417 13.7785C10.8112 15.2965 11.9602 15.8885 12.8262 16.0205C13.2692 16.0885 13.6262 16.0345 13.8972 15.9335C14.049 15.8779 14.1908 15.7983 14.3172 15.6975L14.3672 15.6525L14.3742 15.6465L14.3772 15.6435L14.3782 15.6415C14.3782 15.6415 14.3792 15.6405 13.8502 15.1085C13.3202 14.5765 13.3232 14.5755 13.3232 14.5755L13.3252 14.5735L13.3272 14.5715L13.3332 14.5665L13.3432 14.5565L13.3812 14.5265C13.3905 14.5205 13.3882 14.5211 13.3742 14.5285C13.3492 14.5375 13.2512 14.5685 13.0542 14.5385C12.6402 14.4745 11.7702 14.1345 10.3422 12.7145L9.28417 13.7785ZM7.72417 4.15847C6.70417 2.79847 4.70017 2.58247 3.48317 3.79247L4.54017 4.85647C5.07217 4.32747 6.01617 4.38247 6.52317 5.05947L7.72417 4.15847ZM2.50217 7.45347C2.48217 7.10747 2.64117 6.74547 2.97117 6.41747L1.91217 5.35347C1.37517 5.88747 0.952173 6.64347 1.00317 7.53747L2.50217 7.45347ZM17.2222 19.5135C16.9482 19.7875 16.6522 19.9415 16.3572 19.9685L16.4962 21.4615C17.2312 21.3925 17.8322 21.0225 18.2802 20.5775L17.2222 19.5135ZM8.75617 9.47847C9.74117 8.49947 9.81417 6.95247 8.98517 5.84447L7.78417 6.74347C8.18717 7.28247 8.12717 7.98947 7.69917 8.41647L8.75617 9.47847ZM18.2762 16.0375C19.0932 16.4815 19.2202 17.5275 18.6432 18.1015L19.7012 19.1645C21.0412 17.8315 20.6282 15.6085 18.9912 14.7195L18.2762 16.0375ZM14.8352 15.1885C15.2192 14.8065 15.8372 14.7125 16.3652 14.9985L17.0812 13.6815C15.9972 13.0915 14.6532 13.2545 13.7772 14.1245L14.8352 15.1885Z" fill="var(--fill-0, #374151)"/>
</g>
</svg>
