<svg xmlns="http://www.w3.org/2000/svg" viewBox="0 0 1684.19 169.07" fill="none" aria-hidden="true">
  <path
    fill="#2db2ff"
    d="M139.12,149.75L95.6,62.97c-4.11-8.2-11.31-23.02-25.36-23.02-9.94,0-18.16,6.35-18.16,14.02v115.09H0V53.97C0,24.61,31.87,0,69.9,0c33.24,0,56.54,16.67,67.16,39.95l39.75,87.31,40.09-87.31C227.52,16.4,250.48,0,284.06,0c38.03,0,69.9,24.61,69.9,53.97v115.09h-52.08V53.97c0-7.67-8.22-14.02-18.16-14.02-13.71,0-21.24,14.81-25.36,23.02l-44.89,86.78c-5.83,11.38-20.9,19.32-37.01,19.32s-31.52-7.41-37.35-19.32Z"
  />
  <path
    fill="#2db2ff"
    d="M395.09,84.4C395.09,38.1,444.43,0,504.4,0h86.69c59.96,0,109.31,38.1,109.31,84.4s-49.34,84.67-109.31,84.67h-181.26c-8.22,0-14.73-5.03-14.73-11.38V84.4Zm52.08,44.45h143.57c31.52,0,57.57-20.11,57.57-44.45s-26.04-44.45-57.57-44.45h-86.01c-31.52,0-57.57,20.11-57.57,44.45v44.45Z"
  />
  <path
    fill="#2db2ff"
    d="M948.83,0c37.01,0,68.19,24.08,68.19,52.65,0,7.94-2.4,15.61-6.85,22.49,17.13,9.52,28.44,24.87,28.44,42.07,0,28.05-30.5,51.86-66.82,51.86h-233.69V65.35h210.39c8.91,0,16.45-5.82,16.45-12.7s-7.54-12.7-16.45-12.7h-158.31v11.64l-52.08-17.2V11.38c0-6.35,6.51-11.38,14.73-11.38h196Zm38.03,117.21c0-6.35-6.85-11.64-15.08-11.64h-181.61v23.28h181.61c8.22,0,15.08-5.29,15.08-11.64Z"
  />
  <path
    fill="#2db2ff"
    d="M1282.59,105.3h-157.62c10.28,14.02,29.47,23.55,50.37,23.55h170.64l22.27,40.22h-192.91c-59.96,0-109.31-38.36-109.31-84.67S1115.38,0,1175.34,0h192.91l-22.27,39.95h-170.64c-21.93,0-42.83,10.32-52.08,25.66h159.33v39.69Z"
  />
  <path
    fill="#2db2ff"
    d="M1598.53,105.3h-157.62c10.28,14.02,29.47,23.55,50.37,23.55h170.64l22.27,40.22h-192.91c-59.96,0-109.31-38.36-109.31-84.67S1431.31,0,1491.28,0h192.91l-22.27,39.95h-170.64c-21.93,0-42.83,10.32-52.08,25.66h159.33v39.69Z"
  />
</svg>
